<?xml version="1.0" encoding="utf-8"?>
<!-- Generator: Adobe Illustrator 25.2.1, SVG Export Plug-In . SVG Version: 6.00 Build 0)  -->
<svg version="1.1" id="Capa_1" xmlns="http://www.w3.org/2000/svg" xmlns:xlink="http://www.w3.org/1999/xlink" x="0px" y="0px"
	 viewBox="0 0 32 32" style="enable-background:new 0 0 32 32;" xml:space="preserve">
<style type="text/css">
	.st0{fill:#999999;}
</style>
<g>
	<g id="Magnifying_x5F_Glass">
		<g>
			<path class="st0" d="M11.5,0C17.9,0,23,5.2,23,11.5c0,2.1-0.6,4-1.5,5.7l9.7,9.7c1.2,1.2,1.2,3.1,0,4.2C30.6,31.7,29.8,32,29,32
				c-0.8,0-1.5-0.3-2.1-0.9l-9.7-9.7c-1.7,1-3.6,1.5-5.7,1.5C5.2,23,0,17.9,0,11.5S5.2,0,11.5,0z M28.3,29.7C28.6,30,28.9,30,29,30
				c0.2,0,0.5,0,0.7-0.3C30,29.5,30,29.2,30,29s0-0.5-0.3-0.7l-9.4-9.4c-0.4,0.5-0.9,1-1.4,1.4L28.3,29.7z M11.5,21
				c5.2,0,9.5-4.3,9.5-9.5S16.8,2,11.5,2C6.3,2,2,6.3,2,11.5C2,16.8,6.3,21,11.5,21z M6.2,6.1c0.4-0.4,1-0.4,1.4,0
				c0.4,0.4,0.4,1,0,1.4c-2.2,2.2-2.2,5.8,0,8c0.4,0.4,0.4,1,0,1.4c-0.2,0.2-0.5,0.3-0.7,0.3s-0.5-0.1-0.7-0.3
				C3.3,13.9,3.3,9.1,6.2,6.1z"/>
		</g>
	</g>
</g>
</svg>
